<mxfile host="Electron" modified="2024-02-18T12:38:10.224Z" agent="Mozilla/5.0 (Windows NT 10.0; Win64; x64) AppleWebKit/537.36 (KHTML, like Gecko) draw.io/23.1.5 Chrome/120.0.6099.109 Electron/28.1.0 Safari/537.36" etag="pOtOcz97WveCxvhGTgFN" version="23.1.5" type="device">
  <diagram name="Страница — 1" id="qdfZQsnE_lnyh3a2jX9p">
    <mxGraphModel dx="1434" dy="844" grid="1" gridSize="10" guides="1" tooltips="1" connect="1" arrows="1" fold="1" page="1" pageScale="1" pageWidth="827" pageHeight="1169" math="0" shadow="0">
      <root>
        <mxCell id="0" />
        <mxCell id="1" parent="0" />
        <mxCell id="Z7ZuaujE7Fwi7aXj2LP4-6" style="edgeStyle=orthogonalEdgeStyle;rounded=0;orthogonalLoop=1;jettySize=auto;html=1;entryX=0.5;entryY=0;entryDx=0;entryDy=0;" parent="1" source="Z7ZuaujE7Fwi7aXj2LP4-1" target="Z7ZuaujE7Fwi7aXj2LP4-4" edge="1">
          <mxGeometry relative="1" as="geometry" />
        </mxCell>
        <mxCell id="Z7ZuaujE7Fwi7aXj2LP4-1" value="id: 1, ряд: 1" style="rounded=0;whiteSpace=wrap;html=1;" parent="1" vertex="1">
          <mxGeometry x="340" y="160" width="120" height="20" as="geometry" />
        </mxCell>
        <mxCell id="Z7ZuaujE7Fwi7aXj2LP4-3" value="2" style="text;html=1;align=center;verticalAlign=middle;whiteSpace=wrap;rounded=0;" parent="1" vertex="1">
          <mxGeometry x="384" y="190" width="60" height="30" as="geometry" />
        </mxCell>
        <mxCell id="Z7ZuaujE7Fwi7aXj2LP4-4" value="id: 2, ряд: 2" style="rounded=0;whiteSpace=wrap;html=1;" parent="1" vertex="1">
          <mxGeometry x="340" y="240" width="120" height="20" as="geometry" />
        </mxCell>
        <mxCell id="Z7ZuaujE7Fwi7aXj2LP4-5" value="" style="endArrow=classic;html=1;rounded=0;" parent="1" edge="1">
          <mxGeometry width="50" height="50" relative="1" as="geometry">
            <mxPoint x="399.83" y="260" as="sourcePoint" />
            <mxPoint x="400" y="320" as="targetPoint" />
          </mxGeometry>
        </mxCell>
        <mxCell id="Z7ZuaujE7Fwi7aXj2LP4-7" value="4" style="text;html=1;align=center;verticalAlign=middle;whiteSpace=wrap;rounded=0;" parent="1" vertex="1">
          <mxGeometry x="384" y="270" width="60" height="30" as="geometry" />
        </mxCell>
        <mxCell id="Z7ZuaujE7Fwi7aXj2LP4-10" style="edgeStyle=orthogonalEdgeStyle;rounded=0;orthogonalLoop=1;jettySize=auto;html=1;entryX=0.5;entryY=0;entryDx=0;entryDy=0;" parent="1" source="Z7ZuaujE7Fwi7aXj2LP4-8" target="Z7ZuaujE7Fwi7aXj2LP4-9" edge="1">
          <mxGeometry relative="1" as="geometry" />
        </mxCell>
        <mxCell id="Z7ZuaujE7Fwi7aXj2LP4-8" value="id: 3, ряд: 3" style="rounded=0;whiteSpace=wrap;html=1;" parent="1" vertex="1">
          <mxGeometry x="340" y="320" width="120" height="20" as="geometry" />
        </mxCell>
        <mxCell id="Z7ZuaujE7Fwi7aXj2LP4-9" value="id: 4, ряд: 4" style="rounded=0;whiteSpace=wrap;html=1;" parent="1" vertex="1">
          <mxGeometry x="340" y="380" width="120" height="20" as="geometry" />
        </mxCell>
        <mxCell id="Z7ZuaujE7Fwi7aXj2LP4-11" value="1" style="text;html=1;align=center;verticalAlign=middle;whiteSpace=wrap;rounded=0;" parent="1" vertex="1">
          <mxGeometry x="384" y="340" width="60" height="30" as="geometry" />
        </mxCell>
        <mxCell id="Z7ZuaujE7Fwi7aXj2LP4-12" value="" style="endArrow=classic;html=1;rounded=0;" parent="1" edge="1">
          <mxGeometry width="50" height="50" relative="1" as="geometry">
            <mxPoint x="399.83" y="400" as="sourcePoint" />
            <mxPoint x="399.83" y="440" as="targetPoint" />
          </mxGeometry>
        </mxCell>
        <mxCell id="Z7ZuaujE7Fwi7aXj2LP4-17" style="edgeStyle=orthogonalEdgeStyle;rounded=0;orthogonalLoop=1;jettySize=auto;html=1;entryX=0.5;entryY=0;entryDx=0;entryDy=0;" parent="1" source="Z7ZuaujE7Fwi7aXj2LP4-13" target="Z7ZuaujE7Fwi7aXj2LP4-16" edge="1">
          <mxGeometry relative="1" as="geometry" />
        </mxCell>
        <mxCell id="Z7ZuaujE7Fwi7aXj2LP4-13" value="id: 5, ряд: 5" style="rounded=0;whiteSpace=wrap;html=1;" parent="1" vertex="1">
          <mxGeometry x="340" y="440" width="120" height="20" as="geometry" />
        </mxCell>
        <mxCell id="Z7ZuaujE7Fwi7aXj2LP4-14" value="3" style="text;html=1;align=center;verticalAlign=middle;whiteSpace=wrap;rounded=0;" parent="1" vertex="1">
          <mxGeometry x="384" y="400" width="60" height="30" as="geometry" />
        </mxCell>
        <mxCell id="Z7ZuaujE7Fwi7aXj2LP4-16" value="id: 6, ряд: 6&lt;br&gt;нет мест!" style="rounded=0;whiteSpace=wrap;html=1;" parent="1" vertex="1">
          <mxGeometry x="340" y="490" width="120" height="30" as="geometry" />
        </mxCell>
        <mxCell id="Z7ZuaujE7Fwi7aXj2LP4-18" value="" style="endArrow=classic;html=1;rounded=0;" parent="1" edge="1">
          <mxGeometry width="50" height="50" relative="1" as="geometry">
            <mxPoint x="460" y="329.83" as="sourcePoint" />
            <mxPoint x="520" y="329.83" as="targetPoint" />
          </mxGeometry>
        </mxCell>
        <mxCell id="Z7ZuaujE7Fwi7aXj2LP4-19" value="6" style="text;html=1;align=center;verticalAlign=middle;whiteSpace=wrap;rounded=0;" parent="1" vertex="1">
          <mxGeometry x="460" y="310" width="60" height="30" as="geometry" />
        </mxCell>
        <mxCell id="Z7ZuaujE7Fwi7aXj2LP4-22" style="edgeStyle=orthogonalEdgeStyle;rounded=0;orthogonalLoop=1;jettySize=auto;html=1;entryX=0;entryY=0.5;entryDx=0;entryDy=0;" parent="1" source="Z7ZuaujE7Fwi7aXj2LP4-20" target="Z7ZuaujE7Fwi7aXj2LP4-21" edge="1">
          <mxGeometry relative="1" as="geometry" />
        </mxCell>
        <mxCell id="Z7ZuaujE7Fwi7aXj2LP4-20" value="id: 7, ряд: 4" style="rounded=0;whiteSpace=wrap;html=1;" parent="1" vertex="1">
          <mxGeometry x="520" y="320" width="120" height="20" as="geometry" />
        </mxCell>
        <mxCell id="Z7ZuaujE7Fwi7aXj2LP4-21" value="id: 8, ряд: 5" style="rounded=0;whiteSpace=wrap;html=1;" parent="1" vertex="1">
          <mxGeometry x="670" y="320" width="120" height="20" as="geometry" />
        </mxCell>
        <mxCell id="Z7ZuaujE7Fwi7aXj2LP4-23" value="3" style="text;html=1;align=center;verticalAlign=middle;whiteSpace=wrap;rounded=0;" parent="1" vertex="1">
          <mxGeometry x="620" y="300" width="60" height="30" as="geometry" />
        </mxCell>
        <mxCell id="Z7ZuaujE7Fwi7aXj2LP4-25" value="" style="endArrow=classic;html=1;rounded=0;" parent="1" edge="1">
          <mxGeometry width="50" height="50" relative="1" as="geometry">
            <mxPoint x="790" y="329.67" as="sourcePoint" />
            <mxPoint x="840" y="330" as="targetPoint" />
          </mxGeometry>
        </mxCell>
        <mxCell id="Z7ZuaujE7Fwi7aXj2LP4-26" value="id: 9, ряд 6&lt;br&gt;нету мест!" style="rounded=0;whiteSpace=wrap;html=1;" parent="1" vertex="1">
          <mxGeometry x="840" y="315" width="120" height="30" as="geometry" />
        </mxCell>
        <mxCell id="Z7ZuaujE7Fwi7aXj2LP4-27" value="5" style="text;html=1;align=center;verticalAlign=middle;whiteSpace=wrap;rounded=0;" parent="1" vertex="1">
          <mxGeometry x="780" y="300" width="60" height="30" as="geometry" />
        </mxCell>
        <mxCell id="Z7ZuaujE7Fwi7aXj2LP4-29" value="1" style="text;html=1;align=center;verticalAlign=middle;whiteSpace=wrap;rounded=0;" parent="1" vertex="1">
          <mxGeometry x="560" y="360" width="60" height="30" as="geometry" />
        </mxCell>
        <mxCell id="Z7ZuaujE7Fwi7aXj2LP4-30" value="id: 10, ряд 5" style="rounded=0;whiteSpace=wrap;html=1;" parent="1" vertex="1">
          <mxGeometry x="520" y="400" width="120" height="20" as="geometry" />
        </mxCell>
        <mxCell id="Z7ZuaujE7Fwi7aXj2LP4-31" style="edgeStyle=orthogonalEdgeStyle;rounded=0;orthogonalLoop=1;jettySize=auto;html=1;entryX=0.499;entryY=-0.049;entryDx=0;entryDy=0;entryPerimeter=0;" parent="1" source="Z7ZuaujE7Fwi7aXj2LP4-20" target="Z7ZuaujE7Fwi7aXj2LP4-30" edge="1">
          <mxGeometry relative="1" as="geometry" />
        </mxCell>
        <mxCell id="Z7ZuaujE7Fwi7aXj2LP4-38" style="edgeStyle=orthogonalEdgeStyle;rounded=0;orthogonalLoop=1;jettySize=auto;html=1;entryX=0.5;entryY=0;entryDx=0;entryDy=0;" parent="1" source="Z7ZuaujE7Fwi7aXj2LP4-33" target="Z7ZuaujE7Fwi7aXj2LP4-37" edge="1">
          <mxGeometry relative="1" as="geometry" />
        </mxCell>
        <mxCell id="Z7ZuaujE7Fwi7aXj2LP4-33" value="id: 11, ряд 6" style="rounded=0;whiteSpace=wrap;html=1;" parent="1" vertex="1">
          <mxGeometry x="520" y="450" width="120" height="20" as="geometry" />
        </mxCell>
        <mxCell id="Z7ZuaujE7Fwi7aXj2LP4-34" value="" style="endArrow=classic;html=1;rounded=0;" parent="1" edge="1">
          <mxGeometry width="50" height="50" relative="1" as="geometry">
            <mxPoint x="579.76" y="420" as="sourcePoint" />
            <mxPoint x="580" y="450" as="targetPoint" />
          </mxGeometry>
        </mxCell>
        <mxCell id="Z7ZuaujE7Fwi7aXj2LP4-35" value="3" style="text;html=1;align=center;verticalAlign=middle;whiteSpace=wrap;rounded=0;" parent="1" vertex="1">
          <mxGeometry x="570" y="420" width="60" height="30" as="geometry" />
        </mxCell>
        <mxCell id="Z7ZuaujE7Fwi7aXj2LP4-37" value="конец" style="ellipse;whiteSpace=wrap;html=1;" parent="1" vertex="1">
          <mxGeometry x="520" y="520" width="120" height="25" as="geometry" />
        </mxCell>
        <mxCell id="Z7ZuaujE7Fwi7aXj2LP4-39" value="5" style="text;html=1;align=center;verticalAlign=middle;whiteSpace=wrap;rounded=0;" parent="1" vertex="1">
          <mxGeometry x="570" y="480" width="60" height="30" as="geometry" />
        </mxCell>
        <mxCell id="Z7ZuaujE7Fwi7aXj2LP4-40" value="5" style="text;html=1;align=center;verticalAlign=middle;whiteSpace=wrap;rounded=0;" parent="1" vertex="1">
          <mxGeometry x="390" y="460" width="60" height="30" as="geometry" />
        </mxCell>
      </root>
    </mxGraphModel>
  </diagram>
</mxfile>
